PathFileType	4	(X/Y/Z)	C:\Users\WrightLab\Desktop\Jo\P1_boxCal6.trc
DataRate	CameraRate	NumFrames	NumMarkers	Units	OrigDataRate	OrigDataStartFrame	OrigNumFrames
100.00	100.00	       9	19	mm	100.00	278	       739
Frame#	Time	Headset_Front			Headset_Back			Headset_Left			Headset_Right			Left_Shoulder			Right_Shoulder			Sternum			C7			Left Elbow			Right Elbow			Left Wrist			Right Wrist			Left ASIS			Right ASIS			S2			Left Knee			Right Knee			Left Ankle			Right Ankle			
		X1	Y1	Z1	X2	Y2	Z2	X3	Y3	Z3	X4	Y4	Z4	X5	Y5	Z5	X6	Y6	Z6	X7	Y7	Z7	X8	Y8	Z8	X9	Y9	Z9	X10	Y10	Z10	X11	Y11	Z11	X12	Y12	Z12	X13	Y13	Z13	X14	Y14	Z14	X15	Y15	Z15	X16	Y16	Z16	X17	Y17	Z17	X18	Y18	Z18	X19	Y19	Z19	

278	2.770	-443.77045	1449.00317	452.57831	-398.06473	1509.53345	150.63744	-307.68823	1471.52515	292.42209	-531.60150	1458.90234	329.27130	-218.36145	1287.29675	248.52394	-595.96259	1275.62170	254.90497	-424.58652	1183.33569	387.79254	-396.79025	1282.71399	134.37126	-123.13197	969.31018	264.09961	-678.48187	1010.06677	185.28580	-80.23431	805.62488	405.80084	-735.11194	771.27307	253.81473	-316.37555	901.04132	403.62704	-516.98749	901.44922	393.64972	-396.87427	897.13947	84.50945	-255.48596	452.17825	226.55528	-584.81891	497.67368	406.75034	-282.88281	94.47206	130.92474	-590.41479	116.40503	447.57074	
279	2.780	-445.47992	1446.63818	463.86310	-399.51010	1508.28625	161.82954	-309.65759	1470.33997	303.49670	-533.43823	1456.36340	340.72406	-219.01167	1285.15869	259.34109	-597.41541	1273.96619	265.54266	-425.07986	1180.46497	398.54224	-397.46509	1280.61975	146.19116	-123.89377	967.43475	278.36975	-678.99188	1007.52728	193.17644	-81.78151	805.71210	421.16711	-737.85565	770.15625	259.53857	-317.18457	898.33759	414.34241	-518.74377	899.77319	405.74606	-398.20197	894.76361	95.15878	-255.91362	450.97714	234.16612	-583.28516	494.02762	416.06552	-282.26578	95.10016	132.16168	-590.32434	117.12414	478.79395	
280	2.790	-446.31610	1442.80811	473.42105	-401.28641	1506.96240	173.42740	-311.24332	1468.95740	315.94147	-535.22021	1453.40442	351.36395	-219.96880	1283.06995	271.77057	-598.46021	1271.50220	275.48691	-426.38144	1178.26807	409.89926	-398.36115	1279.27588	156.91544	-124.59949	966.15613	293.15652	-679.13947	1005.86871	202.85716	-83.04321	805.13721	437.33865	-740.22614	768.26715	266.15491	-317.52319	896.42212	424.57559	-518.19739	895.48126	416.55136	-400.72653	894.04620	104.10429	-256.04184	449.92874	240.21436	-582.18866	490.33279	425.35782	-282.37549	95.14227	132.96236	-588.53778	120.19115	508.09576	
281	2.800	-448.88229	1440.17126	484.73715	-402.99231	1505.31787	184.56984	-312.89865	1467.27051	326.42535	-536.93005	1450.73901	362.35471	-221.30461	1281.78247	283.43402	-599.23511	1269.72144	287.02286	-427.10562	1175.94067	421.05487	-398.92740	1277.33923	168.38158	-125.08179	965.24597	306.96136	-680.17773	1004.51514	212.50311	-84.98142	805.09821	451.66629	-741.87891	766.17175	272.78302	-317.83298	893.64874	435.53589	-519.80115	893.38049	428.27380	-402.28571	892.60437	114.89375	-255.71597	448.50943	247.09082	-581.30878	487.40872	435.33542	-281.91116	96.13219	134.22354	-587.35449	123.47194	534.63757	
282	2.810	-450.89731	1438.44690	496.82260	-404.95798	1503.70178	196.01628	-314.76819	1465.93433	335.37820	-538.76379	1447.80359	373.08582	-222.56497	1279.97815	294.95023	-600.61804	1267.76831	297.67770	-428.15271	1173.52185	432.75613	-400.08560	1275.02869	179.37212	-127.13870	962.96362	321.54562	-680.05054	1002.09521	222.28604	-86.47269	804.56372	466.47638	-744.49469	765.28741	279.70029	-319.18353	891.54230	447.08084	-520.65118	890.97278	440.47394	-403.43857	890.22559	126.23637	-255.25827	447.93933	254.14864	-580.72540	485.41763	446.68625	-281.92633	96.85984	135.48289	-586.59241	127.75900	559.13135	
283	2.820	-452.59821	1435.56262	507.78220	-406.83527	1502.16418	207.41293	-316.46796	1463.93567	348.60419	-540.30145	1445.09741	384.65268	-224.39226	1278.26392	305.89508	-602.11450	1265.44202	309.05450	-429.98318	1171.57727	444.16492	-401.17276	1273.15820	190.53001	-127.33372	961.35883	335.11432	-680.35114	999.85754	231.71761	-87.90759	803.91174	480.69272	-746.68658	763.48071	287.21826	-319.51947	889.48560	457.94894	-521.58813	888.46405	452.06671	-406.45093	888.92627	136.43369	-255.49345	447.02820	261.26767	-580.89465	483.05554	458.53403	-282.10104	98.02251	135.65486	-586.63196	132.29306	582.92023	
284	2.830	-454.23132	1433.31982	518.99805	-409.03821	1500.53455	218.92133	-318.62259	1462.06848	359.90872	-542.38293	1442.76147	395.88596	-225.74887	1276.34045	317.86218	-603.44440	1263.73950	320.24716	-430.64725	1169.84253	455.28891	-403.08582	1270.99731	201.57936	-128.58730	960.48499	348.74988	-681.36932	998.82507	241.16916	-89.78544	802.75262	494.40613	-748.40472	761.88300	294.80563	-320.14771	886.94006	469.56665	-522.26141	886.08514	463.91208	-408.82379	887.01532	147.05487	-255.87398	446.01254	269.45132	-582.69775	481.57275	471.09232	-282.22812	99.55347	136.30737	-586.78577	136.18773	603.46442	
285	2.840	-455.13089	1430.28723	530.02118	-410.97379	1498.69788	230.06720	-320.82535	1459.89331	371.94705	-544.12860	1440.58093	407.44498	-227.86647	1273.96436	328.75729	-605.06342	1261.40002	332.10361	-431.76089	1167.96863	466.34097	-404.92474	1268.89612	213.40488	-131.36046	958.38007	362.94876	-682.56775	996.88660	250.82410	-91.63253	801.65845	507.64911	-750.96411	760.47076	302.68066	-321.02487	885.30621	480.76999	-523.21802	883.87567	475.28137	-410.94803	884.36694	158.43071	-255.99438	445.52213	276.39951	-584.33099	480.21597	484.29333	-282.48163	101.43757	137.37511	-586.59363	138.57681	622.04620	
286	2.850	-457.35999	1428.52454	541.78107	-413.29794	1497.22205	241.84682	-322.57385	1458.09326	382.39597	-546.00482	1438.39282	418.70166	-229.62791	1272.63464	339.33276	-607.74658	1259.79529	342.80096	-433.67502	1166.40173	478.24774	-406.36847	1266.37708	224.44191	-132.43623	957.23676	374.87372	-683.24268	994.53064	261.54752	-93.29018	800.98389	519.90002	-753.00116	758.14569	310.78287	-322.18387	884.41534	492.55914	-523.88190	882.09369	487.07339	-413.75903	882.52740	169.72661	-257.36676	445.44339	283.04642	-585.47742	479.05508	498.53903	-282.66959	103.08994	137.97134	-585.99310	138.54359	638.92505	
